<?xml version="1.0" encoding="utf-8"?>
<!-- Generator: Adobe Illustrator 24.3.0, SVG Export Plug-In . SVG Version: 6.00 Build 0)  -->
<svg version="1.1" id="Layer_1" xmlns="http://www.w3.org/2000/svg" xmlns:xlink="http://www.w3.org/1999/xlink" x="0px" y="0px"
	 viewBox="0 0 111 109" style="enable-background:new 0 0 111 109;" xml:space="preserve">
<style type="text/css">
	.st0{clip-path:url(#SVGID_2_);}
	.st1{display:none;fill:#FEFEFE;}
	.st2{fill:#FFFFFF;}
	.st3{display:none;fill:#7F7F7F;}
	.st4{display:none;fill:#FCFBFC;}
	.st5{display:none;fill:#F8F8F8;}
	.st6{display:none;fill:#FEFDFD;}
	.st7{display:none;fill:#FEFCFC;}
	.st8{display:none;fill:#E5E5E5;}
</style>
<g>
	<defs>
		<rect id="SVGID_1_" width="111" height="109"/>
	</defs>
	<clipPath id="SVGID_2_">
		<use xlink:href="#SVGID_1_"  style="overflow:visible;"/>
	</clipPath>
	<g class="st0">
		<path class="st1" d="M104.7,90.7c0.5,0,1-0.2,1.5-0.5c0.4-0.3,0.8-0.7,1-1.2c0.2-0.5,0.2-1,0.1-1.5c-0.1-0.5-0.4-1-0.7-1.3
			c-0.4-0.4-0.9-0.6-1.4-0.7c-0.5-0.1-1.1,0-1.5,0.2c-0.5,0.2-0.9,0.5-1.2,1s-0.4,1-0.4,1.5c0,0.3,0.1,0.7,0.2,1
			c0.1,0.3,0.3,0.6,0.6,0.9c0.2,0.2,0.5,0.4,0.9,0.6S104.2,90.6,104.7,90.7L104.7,90.7z"/>
		<path class="st2" d="M53.3,109c-0.5-0.1-0.9-0.1-1.4-0.2c-10.2-0.6-20-4-28.3-9.8c-10-7-17-16.3-20.8-27.8
			c-1.6-4.8-2.5-9.7-2.6-14.7c0-0.1,0-0.2-0.1-0.2v-3.5c0.1-0.5,0.1-1,0.2-1.6c0.6-11,4.7-21.5,11.5-30.1c5.8-7.3,13.3-13,21.9-16.6
			c8.6-3.6,17.9-5.1,27.2-4.2C70.1,1.1,79,4.3,86.7,9.5c7.7,5.2,14,12.2,18.3,20.4c4.8,9.3,6.8,19.8,5.7,30.2
			c-1.3,11.8-6,22.2-14.1,31c-7.7,8.4-17.2,13.8-28.4,16.4c-3.4,0.8-6.9,1.3-10.4,1.4c-0.1,0-0.2,0-0.3,0.1h-0.4
			c0,0-0.1-0.1-0.1-0.1h-3c0,0-0.1,0-0.1,0.1L53.3,109z M109.8,54.5v-0.6c0-0.2,0-0.4,0-0.6c-0.1-5.3-1-10.5-2.7-15.5
			c-2.8-8.4-7.7-16-14.3-22.1c-8.9-8.2-19.5-13-31.6-14.3c-8.7-0.9-17.4,0.3-25.5,3.4C27.5,8,20.3,13,14.5,19.5
			C9.5,25.2,5.7,32,3.5,39.3c-2.2,7.3-2.8,15-1.8,22.5C2.5,67.6,4.3,73.3,7,78.5c5.5,10.6,13.7,18.5,24.5,23.8
			c10.1,4.9,20.8,6.5,31.9,4.9c13.6-1.9,26-8.9,34.7-19.6C105.8,77.9,109.7,66.9,109.8,54.5z"/>
		<path class="st3" d="M53.9,109c0,0,0.1-0.1,0.1-0.1h3c0,0,0.1,0,0.1,0.1H53.9z"/>
		<path class="st2" d="M104.7,90.7c-0.5,0-1-0.2-1.5-0.5c-0.4-0.3-0.8-0.7-1-1.2c-0.2-0.5-0.2-1-0.1-1.5c0.1-0.5,0.4-1,0.7-1.4
			c0.4-0.4,0.9-0.6,1.4-0.7c0.5-0.1,1.1,0,1.5,0.2c0.5,0.2,0.9,0.5,1.2,1c0.3,0.4,0.5,0.9,0.5,1.5c0,0.3-0.1,0.7-0.2,1
			c-0.1,0.3-0.3,0.6-0.6,0.9c-0.2,0.2-0.5,0.4-0.9,0.6C105.4,90.6,105.1,90.6,104.7,90.7L104.7,90.7z M106.7,88c0-0.3,0-0.5-0.1-0.8
			s-0.2-0.5-0.4-0.7c-0.2-0.2-0.4-0.4-0.6-0.5s-0.5-0.2-0.8-0.2h-0.1c-0.3,0-0.5,0.1-0.8,0.2c-0.2,0.1-0.5,0.2-0.7,0.4
			c-0.2,0.2-0.3,0.4-0.4,0.7c-0.1,0.2-0.2,0.5-0.2,0.8V88c0,0.5,0.2,1,0.6,1.4c0.4,0.4,0.9,0.6,1.4,0.6c0.5,0,1.1-0.2,1.4-0.6
			C106.5,89,106.7,88.5,106.7,88L106.7,88z"/>
		<path class="st4" d="M109.8,54.5c-0.1,12.4-4,23.4-11.8,33.1c-8.6,10.7-21,17.7-34.6,19.6c-11.1,1.5-21.8,0-31.9-4.9
			C20.7,97,12.6,89.1,7,78.5c-2.7-5.2-4.5-10.9-5.3-16.7c-1.1-7.5-0.5-15.2,1.8-22.5c2.2-7.3,6-14,11.1-19.8
			C20.3,13,27.5,8,35.6,4.9c8.1-3.1,16.9-4.3,25.5-3.4c12.1,1.3,22.7,6.1,31.6,14.3c6.6,6,11.5,13.6,14.3,22.1
			c1.7,5,2.6,10.2,2.7,15.5c0,0.2,0,0.4,0,0.6C109.8,54.1,109.8,54.3,109.8,54.5z M55.5,106.2c3.4,0,6.9-0.3,10.2-1
			c10.6-2,20.4-7.3,27.9-15c5-5.1,8.8-11.1,11.3-17.7c2.5-6.6,3.6-13.7,3.2-20.7c-0.2-4.5-1.1-9-2.5-13.2c-2.3-6.9-6.1-13.3-11-18.7
			c-4.9-5.4-11-9.7-17.7-12.7c-9.4-4.1-19.7-5.4-29.8-3.8C41.6,4.3,36.2,6,31.3,8.5C21.2,13.7,13.6,21.3,8.4,31.3
			C4,40,2.2,49.2,3.1,58.9c0.3,4,1.2,7.9,2.4,11.8C9,81.1,15.7,90.1,24.7,96.4C33.7,102.8,44.5,106.2,55.5,106.2L55.5,106.2z"/>
		<path class="st5" d="M106.7,88c0,0.5-0.2,1-0.6,1.4c-0.4,0.4-0.9,0.6-1.4,0.6c-0.5,0-1.1-0.2-1.4-0.6c-0.4-0.4-0.6-0.9-0.6-1.4
			c0-0.3,0-0.5,0.1-0.8c0.1-0.2,0.2-0.5,0.4-0.7c0.2-0.2,0.4-0.4,0.6-0.5c0.2-0.1,0.5-0.2,0.8-0.2h0.1c0.3,0,0.5,0,0.8,0.1
			c0.2,0.1,0.5,0.2,0.7,0.4c0.2,0.2,0.3,0.4,0.4,0.6c0.1,0.2,0.2,0.5,0.2,0.8C106.7,87.9,106.7,88,106.7,88z M104.3,88.4
			c0.5-0.1,0.5,0.3,0.6,0.5c0.4,0.6,0.4,0.6,1.1,0.5c-0.2-0.4-0.4-0.7-0.6-1.1c0.2-0.1,0.4-0.3,0.5-0.5c0.1-0.2,0.1-0.4,0-0.7
			c0-0.2-0.2-0.3-0.3-0.5c-0.1-0.1-0.3-0.2-0.5-0.2c-0.5,0-0.9,0-1.4,0v2.9h0.7L104.3,88.4z"/>
		<path class="st2" d="M55.5,106.2c-13.7,0-26.9-5.3-36.7-14.7C12.7,85.7,8.1,78.6,5.5,70.7C4.2,66.9,3.4,62.9,3,58.9
			C2.2,49.2,4,40,8.4,31.3c5.1-10,12.8-17.6,22.9-22.8C41,3.6,52,1.8,62.8,3.2c10.8,1.5,20.9,6.3,28.9,13.7
			c6.4,5.9,11.2,13.4,13.9,21.7c1.4,4.3,2.3,8.7,2.5,13.2c0.4,7-0.7,14.1-3.2,20.7c-2.5,6.6-6.3,12.6-11.3,17.7
			c-7.5,7.8-17.2,13-27.9,15.1C62.3,105.9,58.9,106.3,55.5,106.2z M81.9,38.9l-0.3,0.5l-4.1,7c-3.8,6.6-7.6,13.2-11.5,19.8
			c-0.1,0.2-0.3,0.4-0.6,0.4c-1.8,0.6-3.6,1.2-5.4,1.7c-0.6,0.2-0.9-0.1-0.8-0.7c0.8-3.9,1.6-7.9,2.4-11.8c0.1-0.3,0.1-0.5,0.1-0.8
			l-0.1,0c-0.1,0.1-0.1,0.3-0.2,0.4c-1.1,2-2.1,4-3.2,6c-1.6,2.9-3.8,5.5-6.3,7.7c-1.9,1.6-3.9,2.8-6.5,3.1
			c-1.9,0.2-3.5-0.2-4.9-1.6c-0.3-0.3-0.5-0.7-0.8-1c-0.4,0.3-0.8,0.7-1.2,1c-2.1,1.6-4.3,3.2-6.8,4.2c-1,0.5-2.2,0.7-3.3,0.6
			c-0.6,0-1.2-0.2-1.6-0.6c-0.4-0.4-0.7-0.9-0.8-1.5c-0.1-1,0-2.1,0.2-3.1c0.6-2.9,1.2-5.8,1.8-8.7c0.3-1.2,0.3-2.4,0.1-3.6
			c-0.1-0.7-0.5-1.3-1-1.7c-0.5-0.5-1.2-0.7-1.9-0.7c0,0.1-0.1,0.2-0.1,0.4c-3.1,8-5.9,16.1-8.7,24.2c0,0.1-0.1,0.2,0,0.4
			c0,0.1,0.1,0.2,0.1,0.3c4.2,5.9,9.6,10.7,15.9,14.2c6.3,3.4,13.4,5.4,20.6,5.7c3.9,0.2,7.7-0.1,11.5-0.9c9-1.8,17.2-6.1,23.7-12.5
			c5.5-5.4,9.6-12,11.8-19.4c2.2-7.3,2.6-15.1,1-22.6c-0.2-0.8-0.4-1.7-0.6-2.5c-0.5,0.8-0.8,1.7-1.2,2.5c-1.9,4.1-4,8-7.1,11.4
			c-1.9,2.1-3.9,3.9-6.5,5c-2.6,1.1-5.2,1.5-8,0.8c-1.6-0.4-2.9-1.4-3.8-2.7c-0.9-1.4-1.1-3-0.8-4.6c0.2-0.9,0.7-1.7,1.5-2.3
			c0.8-0.5,1.7-0.7,2.7-0.6c0.1,0,0.2,0,0.2-0.1c0.1,0,0.1-0.1,0.2-0.2c0.9-1.4,1.7-2.8,2.6-4.2c2.1-3.5,4.2-7,6.4-10.5
			c0.1-0.2,0.3-0.3,0.4-0.4c2.8-0.9,5.6-1.8,8.4-2.7c0.1,0,0.2,0,0.3,0c0,0.1,0,0.1,0,0.1c-0.1,0.1-0.2,0.2-0.3,0.3
			c-3,2.7-5,6.4-5.6,10.3c-0.4,2.6-0.5,5.3-0.8,7.9c-0.2,1.9-0.4,3.8-1.2,5.6c0,0.1,0,0.2,0,0.2c0.1-0.1,0.2-0.1,0.3-0.2
			c1.3-1.1,2.5-2.4,3.6-3.8c3.3-4.4,5.9-9.2,7.8-14.3c0.1-0.2,0.1-0.3,0-0.5c-2.4-7.1-6.6-13.5-12.1-18.6
			C80.6,14.2,70.9,9.7,60.6,8.7c-4.8-0.5-9.7-0.3-14.5,0.6C36,11.4,27.4,16.2,20.5,23.8c-8.2,9.1-12.2,19.8-12,32.1
			c0.1,4.6,1,9.3,2.5,13.6c0.3,0.8,0.6,1.6,1,2.6c0.1-0.2,0.1-0.4,0.2-0.4c1.5-4.2,3.1-8.3,4.6-12.5c2.3-6.4,4.7-12.7,7-19.1
			c0.5-1.1,0.7-2.3,0.6-3.5c-0.1-1.6-1.1-2.4-2.7-2.2c-0.8,0.1-1.6,0.5-2.3,1c-1.8,1.3-3,2.9-4,4.8c-0.4,0.8-0.8,1.7-1.2,2.6
			l-1.1-0.4l-0.2-0.1c1.4-3.7,3.3-7,6.4-9.5c1.9-1.6,4.3-2.5,6.8-2.6c2.8-0.1,5,1.3,5.8,3.9c0.3,1,0.4,2.1,0.3,3.2v0.4h0.1
			c0.1-0.1,0.2-0.2,0.2-0.4c1.6-2.4,3.3-4.5,5.7-6.2c2.1-1.5,4.3-2.5,6.9-2.5c1.5,0,3,0.5,4.1,1.6c1.1,1,1.7,2.5,1.8,4v0.1
			c0.1,2.2-0.4,4.3-1.4,6.3c-1.7,3.2-4.1,5.9-6.9,8.1c-4,3.1-8.5,5.1-13.5,6.2c-0.4,0.1-0.8,0.2-1.2,0.3c0.8,0.4,1.5,0.7,2.3,1
			c2.2,1,3.5,2.7,3.8,5c0.2,1.6,0,3.2-0.1,4.7c-0.1,1.3-0.3,2.6-0.4,3.9c-0.1,0.8,0.3,1.1,1.1,1c0.2,0,0.3-0.1,0.5-0.1
			c1.5-0.5,2.8-1.4,4.1-2.3c0,0,0.1-0.1,0.1-0.2c0-0.1,0-0.1,0-0.2c-0.2-1.6-0.1-3.2,0.2-4.8c0.7-3.4,2.1-6.7,4.1-9.6
			c1.5-2.3,3.3-4.3,5.6-5.8c1.7-1.1,3.4-1.8,5.5-1.7c0.8,0,1.5,0.2,2.1,0.7c0.6,0.5,1,1.1,1.2,1.9c0.2,0.9,0.2,1.8-0.1,2.7
			c-0.5,1.8-1.4,3.5-2.6,5c-2.6,3.5-5.6,6.5-9.1,9.1c-0.2,0.1-0.3,0.2-0.3,0.4c-0.2,0.9-0.1,1.7,0.2,2.6c0.1,0.4,0.4,0.7,0.7,0.9
			c0.3,0.2,0.7,0.3,1.1,0.3c0.8,0,1.5-0.3,2.1-0.8c1.1-0.8,2-1.6,3-2.6c3.9-4.3,6.7-9.2,8.8-14.5c0.8-2.1,1.5-4.4,1.9-6.6
			c0-0.1,0.1-0.3,0.2-0.4c0.1-0.1,0.2-0.2,0.4-0.2l3.6-1.1l3.1-0.9c-1.6,6.9-3.1,13.7-4.6,20.6l0.1,0c0.1-0.1,0.1-0.2,0.2-0.3
			c4-7.5,8-15,12-22.5c0.1-0.1,0.2-0.3,0.3-0.4c0.1-0.1,0.3-0.2,0.4-0.2c0.7-0.2,1.4-0.4,2.2-0.6C81.6,39,81.8,38.9,81.9,38.9z
			 M26.1,54.1c0.4-0.1,0.8-0.1,1.1-0.2c0.6-0.2,1.2-0.3,1.8-0.5c3.8-1.4,7.2-3.7,9.8-6.8c2.1-2.5,3.8-5.2,4.5-8.4
			c0.3-1.3,0.5-2.5,0.1-3.8c-0.4-1.4-1.4-2-2.8-1.7c-1.1,0.3-2.1,0.8-3,1.5c-2,1.6-3.5,3.6-4.9,5.7C29.8,44.3,28.2,49.2,26.1,54.1z
			 M46.3,63.8L46.3,63.8c0.2,0,0.2-0.1,0.3-0.1c1.1-1.1,2.3-2.2,3.4-3.4c2.2-2.3,4.1-4.9,5.5-7.7c0.6-1.1,0.9-2.3,0.9-3.5
			c0-1-0.5-1.6-1.3-1.7c-0.3,0-0.5,0.1-0.8,0.2c-0.2,0.1-0.5,0.3-0.7,0.4c-0.8,0.7-1.5,1.6-2,2.6c-2.1,3.6-3.7,7.5-4.8,11.5
			C46.5,62.6,46.4,63.2,46.3,63.8z M79.2,53.1c0.1,0.1,0.1,0.2,0.2,0.3c0.4,0.6,0.6,1.3,0.5,2.1c-0.1,0.7-0.5,1.4-1.1,1.8
			c-0.6,0.4-1.2,0.7-1.9,0.9c-0.9,0.4-1.1,1-0.4,1.7c0.2,0.2,0.4,0.3,0.6,0.4c0.7,0.4,1.5,0.5,2.3,0.3c1.4-0.2,2.3-1.2,2.8-2.4
			c0.8-2,1-4,1.2-6.1c0.3-2.1,0.5-4.1,0.9-6.2c0.1-0.6,0.3-1.3,0.5-1.9l-0.1,0L79.2,53.1z"/>
		<path class="st2" d="M104.3,88.4v1h-0.7v-2.9c0.5,0,1,0,1.4,0c0.2,0,0.4,0.1,0.5,0.2c0.1,0.1,0.3,0.3,0.3,0.5
			c0.1,0.2,0.1,0.4,0,0.7c-0.1,0.2-0.3,0.4-0.5,0.5c0.2,0.4,0.4,0.7,0.6,1.1c-0.7,0.1-0.7,0.1-1.1-0.5
			C104.7,88.7,104.7,88.3,104.3,88.4z M104.3,87.8c0.3-0.1,0.5-0.2,0.8-0.2c0,0,0-0.3,0-0.4c-0.2-0.1-0.5-0.1-0.8-0.2V87.8z"/>
		<path class="st1" d="M81.9,38.9c-0.2,0.1-0.4,0.1-0.5,0.1c-0.7,0.2-1.4,0.4-2.2,0.6c-0.2,0-0.3,0.1-0.4,0.2
			c-0.1,0.1-0.2,0.2-0.3,0.4c-4,7.5-8,15-12,22.5c-0.1,0.1-0.1,0.2-0.2,0.3l-0.1,0c1.5-6.8,3.1-13.7,4.6-20.6l-3.1,0.9
			c-1.2,0.4-2.4,0.7-3.6,1.1c-0.1,0-0.3,0.1-0.4,0.2c-0.1,0.1-0.2,0.3-0.2,0.4c-0.4,2.3-1,4.5-1.9,6.6C59.7,57,56.9,61.9,53,66.1
			c-0.9,0.9-1.9,1.8-3,2.6c-0.6,0.5-1.4,0.8-2.1,0.8c-0.4,0-0.8,0-1.1-0.3c-0.3-0.2-0.6-0.5-0.7-0.9c-0.3-0.8-0.3-1.7-0.2-2.6
			c0.1-0.2,0.2-0.3,0.3-0.4c3.5-2.6,6.6-5.6,9.1-9.1c1.2-1.5,2-3.2,2.6-5c0.3-0.9,0.3-1.8,0.1-2.7c-0.2-0.7-0.6-1.4-1.2-1.9
			c-0.6-0.5-1.3-0.7-2.1-0.7c-2-0.1-3.8,0.6-5.5,1.7c-2.3,1.5-4.1,3.5-5.6,5.8c-2,2.9-3.4,6.2-4.1,9.6c-0.3,1.6-0.4,3.2-0.2,4.8
			c0,0.1,0,0.1,0,0.2c0,0.1-0.1,0.1-0.1,0.2c-1.3,0.9-2.6,1.8-4.1,2.3c-0.1,0-0.3,0.1-0.5,0.1c-0.8,0.1-1.1-0.2-1.1-1
			c0.1-1.3,0.3-2.6,0.4-3.9c0.1-1.6,0.4-3.2,0.1-4.7c-0.4-2.4-1.6-4-3.8-5c-0.7-0.4-1.5-0.6-2.3-1c0.4-0.1,0.8-0.2,1.2-0.3
			c4.9-1.2,9.5-3.1,13.5-6.2c2.9-2.2,5.3-4.9,6.9-8.1c1-1.9,1.5-4.1,1.4-6.3c0-0.7-0.1-1.5-0.4-2.2c-0.3-0.7-0.7-1.3-1.2-1.8
			c-0.5-0.5-1.2-0.9-1.9-1.2c-0.7-0.3-1.4-0.4-2.2-0.4h-0.1c-2.6,0-4.9,1-6.9,2.5c-2.3,1.7-4.1,3.9-5.7,6.2
			c-0.1,0.1-0.2,0.2-0.2,0.4h-0.1v-0.4c0.1-1.1,0-2.2-0.3-3.2c-0.8-2.5-3-4-5.8-3.9c-2.5,0.1-4.9,1-6.8,2.6c-3.1,2.5-5,5.8-6.4,9.5
			l0.2,0.1c0.4,0.2,0.8,0.3,1.1,0.4c0.4-0.9,0.8-1.7,1.2-2.6c1-1.9,2.2-3.6,4-4.8c0.7-0.5,1.5-0.8,2.3-1c1.6-0.2,2.6,0.6,2.7,2.2
			c0,1.2-0.2,2.4-0.6,3.5c-2.3,6.4-4.6,12.7-7,19.1c-1.5,4.2-3.1,8.3-4.6,12.5c0,0.1-0.1,0.2-0.2,0.4c-0.4-0.9-0.7-1.7-1-2.6
			c-1.6-4.4-2.4-9-2.5-13.6c-0.3-12.3,3.7-23,11.9-32.1C27.4,16.2,36,11.4,46.2,9.3c4.8-1,9.6-1.2,14.5-0.6
			C70.9,9.7,80.5,14.2,88,21.2c5.5,5.1,9.6,11.5,12.1,18.6c0.1,0.2,0.1,0.3,0,0.5c-1.9,5.1-4.5,10-7.8,14.3c-1,1.4-2.2,2.7-3.6,3.8
			c-0.1,0.1-0.2,0.1-0.3,0.2c0-0.1,0-0.2,0-0.2c0.7-1.8,1-3.7,1.2-5.6c0.3-2.6,0.4-5.3,0.8-7.9c0.6-4,2.6-7.7,5.6-10.4
			c0.1-0.1,0.2-0.2,0.3-0.3c0,0,0-0.1,0-0.1c-0.1,0-0.2,0-0.3,0c-2.8,0.9-5.6,1.8-8.4,2.7c-0.2,0.1-0.3,0.2-0.4,0.4
			c-2.1,3.5-4.2,7-6.4,10.5c-0.9,1.4-1.7,2.8-2.6,4.2c0,0.1-0.1,0.1-0.2,0.2c-0.1,0-0.1,0.1-0.2,0.1c-0.9-0.2-1.9,0-2.7,0.6
			c-0.8,0.5-1.3,1.3-1.5,2.3c-0.3,1.6-0.1,3.2,0.8,4.6c0.9,1.4,2.2,2.3,3.8,2.7c2.7,0.7,5.4,0.3,8-0.8c2.6-1.1,4.7-2.9,6.5-5
			c3-3.4,5.2-7.3,7.1-11.4c0.4-0.8,0.7-1.7,1.2-2.5c0.2,0.8,0.4,1.7,0.6,2.5c1.6,7.5,1.2,15.3-1,22.6c-2.2,7.3-6.3,14-11.8,19.4
			C82.2,93.5,73.9,97.9,65,99.6c-3.8,0.8-7.7,1.1-11.5,0.9c-7.2-0.3-14.3-2.3-20.6-5.7S21,86.5,16.9,80.7c-0.1-0.1-0.1-0.2-0.1-0.3
			c0-0.1,0-0.2,0-0.4c2.7-8.1,5.6-16.2,8.7-24.1c0-0.1,0.1-0.2,0.1-0.4c0.7,0,1.3,0.3,1.9,0.7c0.5,0.5,0.9,1.1,1,1.7
			c0.2,1.2,0.2,2.4-0.1,3.6c-0.6,2.9-1.2,5.8-1.8,8.7c-0.3,1-0.3,2.1-0.2,3.1c0.2,1.3,1,2,2.3,2.1c1.2,0.1,2.3-0.2,3.3-0.6
			c2.5-1.1,4.6-2.6,6.8-4.2c0.4-0.3,0.8-0.6,1.2-1c0.2,0.3,0.5,0.7,0.8,1c1.3,1.4,3,1.8,4.9,1.6c2.5-0.3,4.6-1.5,6.5-3.1
			c2.5-2.2,4.7-4.8,6.3-7.7c1.1-1.9,2.1-4,3.2-6c0.1-0.1,0.1-0.3,0.2-0.4l0.1,0c0,0.3-0.1,0.5-0.1,0.8c-0.8,3.9-1.6,7.8-2.4,11.8
			c-0.1,0.6,0.2,0.9,0.8,0.7c1.8-0.6,3.6-1.1,5.4-1.7c0.2-0.1,0.4-0.2,0.6-0.4C70,59.6,73.8,53,77.6,46.4l4.1-7
			C81.8,39.2,81.9,39.1,81.9,38.9z M55.9,78.1v-2.6c0.1,0.1,0.2,0.2,0.2,0.3c0.5,0.7,0.9,1.4,1.4,2.1c0.1,0.1,0.2,0.2,0.4,0.2
			c0.3,0,0.6,0,0.9,0v-4.5h-1.1v2.3c-0.5-0.8-0.9-1.4-1.4-2.1c-0.1-0.1-0.2-0.2-0.3-0.2c-0.4,0-0.8,0-1.2,0v4.5L55.9,78.1z M60,76.8
			c0,0.2,0.1,0.5,0.2,0.7c0.1,0.2,0.3,0.4,0.5,0.5c0.4,0.2,0.8,0.3,1.3,0.3c0.5,0,0.9-0.1,1.3-0.3c0.3-0.1,0.5-0.4,0.7-0.7
			c0.1-0.3,0.1-0.7,0-1c-0.2-0.6-0.7-0.8-1.2-0.9c-0.4-0.1-0.7-0.1-1.1-0.3c-0.1,0-0.3-0.3-0.3-0.4c0-0.1,0.1-0.2,0.1-0.2
			c0.1-0.1,0.1-0.1,0.2-0.2c0.5-0.2,0.9,0,1.2,0.6l1-0.3c0-0.2-0.1-0.4-0.2-0.6c-0.1-0.2-0.3-0.3-0.5-0.4c-0.4-0.2-0.8-0.3-1.2-0.3
			c-0.4,0-0.8,0.1-1.2,0.3c-0.2,0.1-0.4,0.2-0.6,0.4c-0.1,0.2-0.2,0.4-0.2,0.7c0,0.7,0.3,1.1,1.1,1.3c0.4,0.1,0.8,0.2,1.2,0.3
			c0.1,0,0.2,0.1,0.2,0.2c0.1,0.1,0.1,0.2,0.1,0.2c0,0.1-0.1,0.2-0.1,0.2c-0.1,0.1-0.1,0.1-0.2,0.2c-0.6,0.2-1,0-1.3-0.7L60,76.8z
			 M80.2,73.6v2.8c0,0.2-0.1,0.4-0.2,0.5c-0.1,0.1-0.3,0.2-0.5,0.2s-0.4-0.1-0.5-0.2c-0.1-0.1-0.2-0.3-0.2-0.5v-2.8h-1.3v2.6
			c0,1.7,1.5,2.5,3,1.8c0.2-0.1,0.4-0.3,0.6-0.4c0.1-0.2,0.2-0.4,0.3-0.7c0.1-1.1,0-2.2,0-3.3L80.2,73.6z M91,73.6h-3.4v4.5H91v-0.9
			h-2.2v-1h1.3v-0.9h-1.3v-0.9H91L91,73.6z M66.1,78.1h1.3v-3.6h1.4v-0.9h-4v0.9h1.3V78.1z M75,74.5h1.3v-0.9h-4v1h1.3v3.5H75
			L75,74.5z M82.4,73.6v1h1.4v3.5H85v-3.6h1.3v-0.9H82.4z M69.9,73.6v4.5h1.3v-4.5H69.9z M53.3,78.1v-4.5h-1.2v4.5H53.3z"/>
		<path class="st6" d="M26.1,54.1c2.1-4.9,3.7-9.8,6.6-14.2c1.4-2.1,2.9-4.1,4.9-5.7c0.9-0.7,1.9-1.3,3-1.5c1.4-0.3,2.4,0.4,2.8,1.7
			c0.3,1.3,0.1,2.6-0.1,3.8c-0.7,3.2-2.3,5.9-4.5,8.4c-2.6,3.1-6,5.4-9.8,6.8c-0.6,0.2-1.2,0.4-1.8,0.5C26.9,54,26.5,54,26.1,54.1z"
			/>
		<path class="st6" d="M46.3,63.8c0.2-0.6,0.3-1.2,0.5-1.7c1.2-4,2.8-7.9,4.9-11.5c0.5-1,1.2-1.8,2-2.6c0.2-0.2,0.4-0.3,0.7-0.4
			c0.2-0.1,0.5-0.2,0.8-0.2c0.8,0.1,1.3,0.7,1.3,1.7c0,1.2-0.3,2.4-0.9,3.5c-1.4,2.9-3.3,5.4-5.5,7.7c-1.1,1.2-2.2,2.3-3.4,3.4
			C46.5,63.7,46.4,63.8,46.3,63.8L46.3,63.8z"/>
		<path class="st7" d="M79.2,53.1l5.5-9.2l0.1,0c-0.2,0.6-0.4,1.3-0.5,1.9c-0.3,2.1-0.6,4.1-0.9,6.2c-0.3,2.1-0.4,4.2-1.2,6.1
			c-0.5,1.2-1.4,2.2-2.8,2.4c-0.8,0.2-1.6,0.1-2.3-0.3c-0.2-0.1-0.4-0.3-0.6-0.4c-0.6-0.7-0.5-1.3,0.4-1.7c0.7-0.2,1.3-0.5,1.9-0.9
			c0.6-0.4,1-1.1,1.1-1.8c0.1-0.7-0.1-1.5-0.5-2.1C79.3,53.3,79.3,53.2,79.2,53.1z"/>
		<path class="st8" d="M104.3,87.8v-0.8c0.3,0,0.5,0.1,0.8,0.2c0,0,0.1,0.3,0,0.4C104.8,87.7,104.6,87.8,104.3,87.8z"/>
		<path class="st2" d="M55.9,78.1h-1.1v-4.5H56c0.1,0,0.2,0.1,0.3,0.2c0.4,0.7,0.9,1.3,1.4,2.1v-2.3h1.1v4.5c-0.3,0-0.6,0-0.9,0
			c-0.1,0-0.3-0.1-0.4-0.2c-0.5-0.7-0.9-1.4-1.4-2.1c-0.1-0.1-0.1-0.2-0.2-0.3L55.9,78.1z"/>
		<path class="st2" d="M60,76.8l1.1-0.2c0.3,0.6,0.7,0.9,1.3,0.7c0.1,0,0.2-0.1,0.2-0.2c0.1-0.1,0.1-0.1,0.1-0.2
			c0-0.1-0.1-0.2-0.1-0.2c-0.1-0.1-0.1-0.1-0.2-0.2c-0.4-0.1-0.8-0.2-1.2-0.3C60.4,76,60,75.6,60,74.9c0-0.2,0.1-0.5,0.2-0.7
			c0.1-0.2,0.3-0.3,0.6-0.4c0.4-0.2,0.8-0.3,1.2-0.3c0.4,0,0.8,0.1,1.2,0.3c0.2,0.1,0.4,0.2,0.5,0.4s0.2,0.4,0.2,0.6l-1,0.3
			c-0.3-0.5-0.7-0.7-1.2-0.6c-0.1,0-0.2,0.1-0.2,0.2c-0.1,0.1-0.1,0.1-0.1,0.2c0,0.1,0.2,0.3,0.3,0.4c0.4,0.1,0.7,0.2,1.1,0.3
			c0.5,0.1,1,0.3,1.2,0.9c0.1,0.3,0.1,0.7,0,1c-0.1,0.3-0.4,0.6-0.7,0.7c-0.4,0.2-0.9,0.3-1.3,0.3c-0.5,0-0.9-0.1-1.3-0.3
			c-0.2-0.1-0.4-0.3-0.5-0.5C60,77.3,60,77,60,76.8z"/>
		<path class="st2" d="M80.2,73.6h1.1c0,1.1,0,2.2,0,3.3c0,0.2-0.1,0.5-0.3,0.7c-0.1,0.2-0.4,0.4-0.6,0.4c-1.5,0.7-3-0.1-3-1.8v-2.6
			h1.3v2.8c0,0.2,0.1,0.4,0.2,0.5c0.1,0.1,0.3,0.2,0.5,0.2s0.4-0.1,0.5-0.2c0.1-0.1,0.2-0.3,0.2-0.5v-2.4L80.2,73.6z"/>
		<path class="st2" d="M91,73.6v0.9h-2.1v0.9h1.3v0.9h-1.3v1H91v0.9h-3.5v-4.5H91z"/>
		<path class="st2" d="M66.1,78.1v-3.6h-1.3v-0.9h4v0.9h-1.3v3.6H66.1z"/>
		<path class="st2" d="M75,74.5v3.6h-1.3v-3.5h-1.3v-1h4v0.9H75z"/>
		<path class="st2" d="M82.4,73.6h4v0.9H85v3.6h-1.3v-3.5h-1.4V73.6z"/>
		<path class="st2" d="M69.9,73.6h1.3v4.5h-1.3L69.9,73.6z"/>
		<path class="st2" d="M53.3,78.1h-1.2v-4.5h1.2V78.1z"/>
	</g>
</g>
</svg>
